<svg width="489" height="179" viewBox="0 0 489 179" fill="none" xmlns="http://www.w3.org/2000/svg">
<!-- <g filter="url(#filter0_d_26_18)"> -->
<path d="M82.6271 122.825C85.8148 121.024 88.9071 120.202 91.9251 120.281C94.9431 120.36 97.9882 121.343 101.077 123.308C104.548 125.516 108.115 126.707 111.761 126.802C115.408 126.898 118.5 126.5 122 124C125 121.5 127 114 127 110.5L123 101C121.5 107.5 124 119 120.5 121.5C117.5 123.643 114.858 123.882 111.84 123.803C108.822 123.724 105.777 122.742 102.688 120.777C99.217 118.569 95.65 117.377 92.0036 117.282C88.3573 117.186 84.7329 118.189 81.1515 120.213L82.6271 122.825Z" fill="#12181E"/>
<!-- </g> -->
<!-- <g filter="url(#filter1_d_26_18)"> -->
<path d="M146.696 124.816C142.6 124.816 138.803 124.133 135.304 122.768C131.805 121.488 128.947 119.44 126.728 116.624C124.509 113.808 123.187 110.181 122.76 105.744C122.419 101.904 123.016 97.7653 124.552 93.328C126.173 88.8053 128.477 84.2827 131.464 79.76C134.536 75.2373 138.035 70.928 141.96 66.832C145.885 62.736 150.024 59.0667 154.376 55.824C158.813 52.5813 163.208 50.0213 167.56 48.144C171.912 46.2667 176.008 45.328 179.848 45.328C182.92 45.328 185.651 46.3093 188.04 48.272C190.429 50.2347 191.624 52.88 191.624 56.208C191.624 58.8533 190.771 61.072 189.064 62.864C187.357 64.5707 185.181 65.424 182.536 65.424C182.451 65.424 182.024 65.3813 181.256 65.296C180.488 65.2107 180.061 64.912 179.976 64.4C180.403 63.376 181.171 62.48 182.28 61.712C183.475 60.944 184.541 59.92 185.48 58.64C186.419 57.2747 186.76 55.2693 186.504 52.624C186.419 51.088 185.779 50.0213 184.584 49.424C183.475 48.7413 182.195 48.4 180.744 48.4C177.16 48.4 173.363 49.424 169.352 51.472C165.341 53.4347 161.373 56.1653 157.448 59.664C153.608 63.0773 149.939 66.9173 146.44 71.184C143.027 75.4507 139.997 79.888 137.352 84.496C134.792 89.104 132.829 93.6267 131.464 98.064C130.099 102.416 129.587 106.341 129.928 109.84C130.355 113.68 132.061 116.539 135.048 118.416C138.12 120.293 141.405 121.232 144.904 121.232C148.915 121.232 153.096 120.592 157.448 119.312C161.8 117.947 166.067 116.24 170.248 114.192C174.515 112.144 178.483 110.011 182.152 107.792C185.821 105.573 188.979 103.525 191.624 101.648C194.355 99.7707 196.317 98.3627 197.512 97.424C197.597 97.3387 197.683 97.296 197.768 97.296C197.939 97.296 198.024 97.5093 198.024 97.936C198.024 98.2773 197.939 98.6613 197.768 99.088C197.683 99.5147 197.427 99.9413 197 100.368C194.269 103.184 190.899 106.043 186.888 108.944C182.963 111.76 178.696 114.363 174.088 116.752C169.48 119.141 164.787 121.061 160.008 122.512C155.315 124.048 150.877 124.816 146.696 124.816ZM222.435 73.744C220.472 73.744 219.491 73.0187 219.491 71.568C219.491 70.544 220.046 69.4347 221.155 68.24C222.264 67.0453 223.886 66.192 226.019 65.68C227.299 65.3387 228.323 65.168 229.091 65.168C229.944 65.0827 230.755 64.912 231.523 64.656C231.182 66.2773 230.456 68.0267 229.347 69.904C228.323 71.7813 226.958 72.9333 225.251 73.36C224.398 73.616 223.459 73.744 222.435 73.744ZM201.955 124.688C200.59 124.688 199.31 124.133 198.115 123.024C197.006 121.915 196.323 120.72 196.067 119.44C196.323 117.819 196.878 115.856 197.731 113.552C198.67 111.163 199.736 108.688 200.931 106.128C202.126 103.568 203.32 101.179 204.515 98.96C205.71 96.656 206.734 94.8213 207.587 93.456C205.966 94.9067 204.216 96.528 202.339 98.32C200.547 100.112 198.84 101.776 197.219 103.312C197.134 103.397 196.92 103.568 196.579 103.824C196.323 104.08 196.067 104.208 195.811 104.208C195.214 104.208 194.915 103.952 194.915 103.44C194.915 103.013 195.086 102.629 195.427 102.288C197.731 99.728 200.12 97.168 202.595 94.608C205.155 92.048 207.63 89.4027 210.019 86.672C210.787 85.7333 211.427 85.008 211.939 84.496C212.536 83.8987 213.432 83.6 214.627 83.6C215.139 83.6 215.907 83.728 216.931 83.984C218.04 84.1547 218.936 84.496 219.619 85.008C220.387 85.52 220.515 86.16 220.003 86.928C219.406 87.8667 218.382 89.4027 216.931 91.536C215.48 93.6693 213.816 96.1013 211.939 98.832C210.147 101.563 208.355 104.336 206.563 107.152C204.856 109.883 203.448 112.357 202.339 114.576C201.23 116.795 200.675 118.459 200.675 119.568C200.675 120.08 200.846 120.336 201.187 120.336C201.699 120.336 202.552 119.867 203.747 118.928C205.027 117.989 206.264 117.008 207.459 115.984C208.739 114.875 209.592 114.149 210.019 113.808C212.494 111.675 214.926 109.499 217.315 107.28C219.704 104.976 221.966 102.587 224.099 100.112C224.27 99.9413 224.483 99.6853 224.739 99.344C225.08 99.0027 225.422 98.832 225.763 98.832C226.19 98.832 226.403 99.088 226.403 99.6C226.403 100.197 226.19 100.795 225.763 101.392C224.654 102.757 223.416 104.123 222.051 105.488C220.686 106.768 219.406 108.048 218.211 109.328C215.992 111.547 213.816 113.765 211.683 115.984C209.635 118.117 207.587 120.336 205.539 122.64C205.112 123.152 204.558 123.621 203.875 124.048C203.278 124.475 202.638 124.688 201.955 124.688ZM246.625 123.408C245.345 123.408 243.894 123.024 242.273 122.256C240.737 121.573 239.969 120.464 239.969 118.928C239.969 117.136 240.652 115.003 242.017 112.528C243.382 110.053 245.004 107.493 246.881 104.848C248.758 102.117 250.55 99.5147 252.257 97.04C254.049 94.5653 255.329 92.4747 256.097 90.768C255.585 91.024 254.732 91.536 253.537 92.304C252.428 92.9867 251.318 93.712 250.209 94.48C249.1 95.1627 248.289 95.7173 247.777 96.144C244.108 98.8747 240.908 101.691 238.177 104.592C235.532 107.493 232.844 110.821 230.113 114.576C229.43 115.6 228.705 116.667 227.937 117.776C227.254 118.885 226.529 119.952 225.761 120.976C225.42 121.403 224.822 121.829 223.969 122.256C223.201 122.683 222.476 122.896 221.793 122.896C220.684 122.896 220.129 122.299 220.129 121.104C220.129 120.08 220.641 118.501 221.665 116.368C222.774 114.235 224.14 111.803 225.761 109.072C227.382 106.341 229.089 103.653 230.881 101.008C232.673 98.2773 234.294 95.8453 235.745 93.712C237.196 91.4933 238.22 89.9147 238.817 88.976C238.646 89.232 238.177 89.7013 237.409 90.384C236.641 90.9813 235.873 91.6213 235.105 92.304C234.422 92.9013 233.91 93.328 233.569 93.584C231.948 95.12 230.369 96.6987 228.833 98.32C227.297 99.9413 225.761 101.563 224.225 103.184C224.054 103.355 223.713 103.611 223.201 103.952C222.774 104.293 222.39 104.464 222.049 104.464C221.622 104.464 221.409 104.251 221.409 103.824C221.409 103.397 222.006 102.501 223.201 101.136C224.396 99.7707 225.889 98.1493 227.681 96.272C229.473 94.3947 231.308 92.4747 233.185 90.512C235.148 88.5493 236.854 86.8 238.305 85.264C239.756 83.728 240.737 82.6613 241.249 82.064C242.102 80.9547 242.998 80.0587 243.937 79.376C244.961 78.6933 246.156 78.352 247.521 78.352C248.289 78.352 249.228 78.736 250.337 79.504C251.446 80.1867 252.001 80.9973 252.001 81.936C252.001 82.2773 251.916 82.4907 251.745 82.576C249.185 84.7093 246.668 87.2267 244.193 90.128C241.804 93.0293 239.542 96.016 237.409 99.088C235.276 102.16 233.313 105.019 231.521 107.664C233.569 105.36 235.873 103.099 238.433 100.88C240.993 98.576 243.468 96.4427 245.857 94.48L254.945 87.056C255.542 86.544 256.14 85.9893 256.737 85.392C257.42 84.7947 258.06 84.2827 258.657 83.856C259.34 83.4293 260.065 83.2587 260.833 83.344C261.686 83.344 262.54 83.344 263.393 83.344C264.332 83.344 265.228 83.6 266.081 84.112C267.02 84.624 267.489 85.4347 267.489 86.544C267.489 87.6533 267.19 88.5067 266.593 89.104C266.081 89.616 265.484 90.2133 264.801 90.896C263.35 92.2613 261.558 94.0533 259.425 96.272C257.377 98.4907 255.329 100.88 253.281 103.44C251.233 106 249.526 108.603 248.161 111.248C246.796 113.808 246.113 116.197 246.113 118.416C246.113 118.672 246.113 118.928 246.113 119.184C246.113 119.44 246.156 119.696 246.241 119.952C248.033 119.269 249.996 118.16 252.129 116.624C254.348 115.003 256.566 113.211 258.785 111.248C261.004 109.285 263.052 107.323 264.929 105.36C266.892 103.397 268.513 101.648 269.793 100.112C269.964 99.9413 270.134 99.728 270.305 99.472C270.561 99.216 270.86 99.088 271.201 99.088C271.628 99.088 271.841 99.3867 271.841 99.984C271.841 100.325 271.713 100.709 271.457 101.136C269.836 103.269 267.66 105.787 264.929 108.688C262.198 111.589 259.382 114.363 256.481 117.008C253.58 119.568 250.977 121.531 248.673 122.896C248.076 123.237 247.393 123.408 246.625 123.408ZM272.919 120.848C267.799 120.848 265.239 118.331 265.239 113.296C265.239 111.333 265.751 109.072 266.775 106.512C267.884 103.867 269.335 101.221 271.127 98.576C272.919 95.9307 274.924 93.4987 277.143 91.28C279.362 88.976 281.623 87.1413 283.927 85.776C286.316 84.3253 288.535 83.6 290.583 83.6C291.266 83.6 291.735 83.7707 291.991 84.112C292.332 84.368 292.588 84.8373 292.759 85.52C292.93 85.8613 293.058 86.2453 293.143 86.672C293.228 87.0987 293.356 87.5253 293.527 87.952C293.868 88.5493 294.167 89.1467 294.423 89.744C294.679 90.3413 294.807 90.9813 294.807 91.664C294.807 92.5173 294.594 93.2853 294.167 93.968C293.74 94.5653 293.228 95.12 292.631 95.632C291.778 96.4 290.498 97.3813 288.791 98.576C287.084 99.6853 285.207 100.837 283.159 102.032C281.196 103.141 279.276 104.123 277.399 104.976C275.607 105.829 274.156 106.341 273.047 106.512C272.279 107.707 271.468 109.2 270.615 110.992C269.847 112.699 269.463 114.277 269.463 115.728C269.463 116.496 269.634 117.179 269.975 117.776C270.402 118.373 271.042 118.672 271.895 118.672C273.26 118.672 275.052 118.032 277.271 116.752C279.575 115.387 281.964 113.765 284.439 111.888C286.914 109.925 289.175 108.048 291.223 106.256C293.356 104.379 294.935 102.928 295.959 101.904L300.055 97.552C300.567 97.04 301.122 96.784 301.719 96.784C302.231 96.784 302.487 96.9973 302.487 97.424C302.487 97.936 301.762 99.0027 300.311 100.624C298.86 102.16 297.111 103.909 295.063 105.872C293.1 107.749 291.266 109.499 289.559 111.12C287.852 112.656 286.743 113.637 286.231 114.064C284.439 115.6 282.391 117.136 280.087 118.672C277.783 120.123 275.394 120.848 272.919 120.848ZM275.223 103.184C276.076 102.672 277.356 101.861 279.063 100.752C280.855 99.6427 282.69 98.4053 284.567 97.04C286.444 95.6747 288.023 94.3093 289.303 92.944C290.668 91.5787 291.351 90.384 291.351 89.36C291.351 89.104 291.308 88.8907 291.223 88.72C291.138 88.6347 290.967 88.592 290.711 88.592C289.602 88.592 288.279 89.1893 286.743 90.384C285.207 91.5787 283.671 93.0293 282.135 94.736C280.599 96.3573 279.191 97.9787 277.911 99.6C276.716 101.136 275.82 102.331 275.223 103.184ZM320.89 126.352C320.293 126.352 319.653 126.352 318.97 126.352C318.373 126.352 317.861 126.309 317.434 126.224C316.666 126.139 315.386 125.84 313.594 125.328C311.802 124.816 309.925 124.133 307.962 123.28C306.085 122.512 304.463 121.616 303.098 120.592C301.818 119.568 301.178 118.459 301.178 117.264C301.178 116.752 301.477 116.496 302.074 116.496C303.525 116.496 304.975 116.88 306.426 117.648C307.962 118.416 309.541 118.885 311.162 119.056C311.845 119.141 312.57 119.227 313.338 119.312C314.191 119.312 315.13 119.312 316.154 119.312C318.287 119.312 320.506 119.141 322.81 118.8C325.114 118.373 327.077 117.648 328.698 116.624C330.319 115.6 331.173 114.149 331.258 112.272C331.258 111.077 330.49 109.584 328.954 107.792C327.418 105.915 325.455 103.781 323.066 101.392C320.762 98.9173 318.458 96.2293 316.154 93.328C313.85 90.3413 311.887 87.1413 310.266 83.728C308.73 80.3147 307.962 76.7733 307.962 73.104C307.962 68.496 309.071 64.4853 311.29 61.072C313.509 57.6587 316.41 54.8853 319.994 52.752C323.578 50.5333 327.503 48.912 331.77 47.888C336.037 46.7787 340.218 46.224 344.314 46.224C346.362 46.224 348.282 46.352 350.074 46.608C352.378 46.864 354.853 47.4613 357.498 48.4C360.229 49.2533 362.575 50.6187 364.538 52.496C366.501 54.288 367.482 56.6773 367.482 59.664C367.482 62.8213 366.458 65.8507 364.41 68.752C362.447 71.6533 360.015 74.2133 357.114 76.432C354.298 78.5653 351.525 80.1867 348.794 81.296C348.282 81.552 347.77 81.68 347.258 81.68C346.831 81.5093 346.618 81.296 346.618 81.04C347.045 80.1013 348.069 78.8213 349.69 77.2C351.397 75.4933 353.231 73.616 355.194 71.568C357.242 69.52 358.991 67.344 360.442 65.04C361.978 62.6507 362.746 60.304 362.746 58C362.746 56.464 362.191 55.312 361.082 54.544C359.973 53.6907 358.65 53.0507 357.114 52.624C355.663 52.1973 354.383 51.8987 353.274 51.728C352.762 51.6427 352.25 51.6 351.738 51.6C351.226 51.6 350.671 51.6 350.074 51.6C346.234 51.6 342.095 52.2827 337.658 53.648C333.306 54.928 329.167 56.7627 325.242 59.152C321.317 61.5413 318.117 64.4 315.642 67.728C313.167 70.9707 311.93 74.5973 311.93 78.608C311.93 80.9973 312.783 83.5573 314.49 86.288C316.197 88.9333 318.33 91.664 320.89 94.48C323.45 97.296 326.01 100.112 328.57 102.928C331.13 105.659 333.263 108.347 334.97 110.992C336.677 113.552 337.53 115.941 337.53 118.16C337.53 120.293 336.591 121.957 334.714 123.152C332.922 124.347 330.703 125.157 328.058 125.584C325.498 126.096 323.109 126.352 320.89 126.352ZM332.825 171.024C328.9 171.024 326.937 169.061 326.937 165.136C326.937 164.709 326.98 164.283 327.065 163.856C327.065 163.429 327.108 163.003 327.193 162.576C327.876 159.504 329.326 156.56 331.545 153.744C333.764 150.928 336.366 148.283 339.353 145.808C342.34 143.419 345.369 141.157 348.441 139.024C351.598 136.976 354.414 135.184 356.889 133.648C358.34 132.709 360.174 131.557 362.393 130.192C364.697 128.827 367.129 127.333 369.689 125.712C372.249 124.176 374.681 122.725 376.985 121.36C377.924 118.971 378.564 116.325 378.905 113.424C379.332 110.437 379.545 107.664 379.545 105.104V104.08C378.521 105.616 377.028 107.408 375.065 109.456C373.102 111.504 370.884 113.509 368.409 115.472C365.934 117.349 363.502 118.928 361.113 120.208C358.724 121.488 356.548 122.128 354.585 122.128C353.22 122.128 352.281 121.701 351.769 120.848C351.342 119.995 351.129 119.013 351.129 117.904C351.129 114.917 351.769 111.845 353.049 108.688C354.329 105.531 355.78 102.629 357.401 99.984C359.022 97.2533 360.473 94.992 361.753 93.2C363.033 91.3227 363.673 90.256 363.673 90C363.673 89.9147 363.588 89.872 363.417 89.872C363.076 89.872 362.692 89.872 362.265 89.872C361.924 89.872 361.881 89.616 362.137 89.104C363.332 87.6533 364.825 86.3733 366.617 85.264C368.409 84.1547 370.116 83.6 371.737 83.6C372.334 83.6 373.017 83.856 373.785 84.368C374.638 84.7947 375.065 85.3493 375.065 86.032C375.065 86.4587 374.809 86.928 374.297 87.44C373.7 88.0373 372.974 88.72 372.121 89.488C371.353 90.256 370.286 91.4507 368.921 93.072C368.153 93.9253 367.086 95.3333 365.721 97.296C364.356 99.1733 362.948 101.349 361.497 103.824C360.046 106.213 358.809 108.603 357.785 110.992C356.846 113.296 356.377 115.301 356.377 117.008C356.377 117.264 356.377 117.563 356.377 117.904C356.462 118.16 356.676 118.416 357.017 118.672C358.212 118.757 359.705 118.245 361.497 117.136C363.289 115.941 365.166 114.448 367.129 112.656C369.177 110.779 371.097 108.816 372.889 106.768C374.766 104.635 376.388 102.672 377.753 100.88C379.204 99.0027 380.228 97.5093 380.825 96.4C381.764 94.6933 383.172 93.84 385.049 93.84C386.414 93.84 387.182 94.1387 387.353 94.736C387.609 95.3333 387.737 96.144 387.737 97.168C387.737 100.496 387.524 103.44 387.097 106C386.756 108.475 386.073 111.291 385.049 114.448C390.51 109.755 395.716 104.805 400.665 99.6C400.75 99.4293 400.921 99.216 401.177 98.96C401.518 98.704 401.774 98.576 401.945 98.576C402.457 98.576 402.713 98.832 402.713 99.344C402.713 100.027 402.457 100.709 401.945 101.392C401.177 102.331 400.324 103.269 399.385 104.208C398.532 105.147 397.678 106.085 396.825 107.024C394.777 109.243 392.686 111.461 390.553 113.68C388.42 115.813 386.158 117.861 383.769 119.824C379.844 130.149 374.681 139.195 368.281 146.96C361.966 154.811 353.988 161.509 344.345 167.056C342.724 167.995 340.889 168.891 338.841 169.744C336.793 170.597 334.788 171.024 332.825 171.024ZM335.769 167.824C338.073 167.824 340.59 166.971 343.321 165.264C345.966 163.643 348.612 161.595 351.257 159.12C353.902 156.645 356.292 154.171 358.425 151.696C360.644 149.307 362.393 147.301 363.673 145.68C365.124 143.717 366.532 141.755 367.897 139.792C369.262 137.915 370.542 135.952 371.737 133.904C373.529 130.917 375.022 128.016 376.217 125.2C376.302 124.944 376.217 124.773 375.961 124.688C375.79 124.688 375.705 124.688 375.705 124.688C373.06 126.565 370.372 128.4 367.641 130.192C364.996 132.069 362.308 133.904 359.577 135.696C358.212 136.549 356.377 137.787 354.073 139.408C351.769 141.115 349.294 142.992 346.649 145.04C344.004 147.173 341.486 149.349 339.097 151.568C336.708 153.872 334.745 156.091 333.209 158.224C331.673 160.443 330.905 162.405 330.905 164.112C330.905 165.477 331.46 166.416 332.569 166.928C333.593 167.525 334.66 167.824 335.769 167.824ZM422.75 123.408C421.47 123.408 420.019 123.024 418.398 122.256C416.862 121.573 416.094 120.464 416.094 118.928C416.094 117.136 416.777 115.003 418.142 112.528C419.507 110.053 421.129 107.493 423.006 104.848C424.883 102.117 426.675 99.5147 428.382 97.04C430.174 94.5653 431.454 92.4747 432.222 90.768C431.71 91.024 430.857 91.536 429.662 92.304C428.553 92.9867 427.443 93.712 426.334 94.48C425.225 95.1627 424.414 95.7173 423.902 96.144C420.233 98.8747 417.033 101.691 414.302 104.592C411.657 107.493 408.969 110.821 406.238 114.576C405.555 115.6 404.83 116.667 404.062 117.776C403.379 118.885 402.654 119.952 401.886 120.976C401.545 121.403 400.947 121.829 400.094 122.256C399.326 122.683 398.601 122.896 397.918 122.896C396.809 122.896 396.254 122.299 396.254 121.104C396.254 120.08 396.766 118.501 397.79 116.368C398.899 114.235 400.265 111.803 401.886 109.072C403.507 106.341 405.214 103.653 407.006 101.008C408.798 98.2773 410.419 95.8453 411.87 93.712C413.321 91.4933 414.345 89.9147 414.942 88.976C414.771 89.232 414.302 89.7013 413.534 90.384C412.766 90.9813 411.998 91.6213 411.23 92.304C410.547 92.9013 410.035 93.328 409.694 93.584C408.073 95.12 406.494 96.6987 404.958 98.32C403.422 99.9413 401.886 101.563 400.35 103.184C400.179 103.355 399.838 103.611 399.326 103.952C398.899 104.293 398.515 104.464 398.174 104.464C397.747 104.464 397.534 104.251 397.534 103.824C397.534 103.397 398.131 102.501 399.326 101.136C400.521 99.7707 402.014 98.1493 403.806 96.272C405.598 94.3947 407.433 92.4747 409.31 90.512C411.273 88.5493 412.979 86.8 414.43 85.264C415.881 83.728 416.862 82.6613 417.374 82.064C418.227 80.9547 419.123 80.0587 420.062 79.376C421.086 78.6933 422.281 78.352 423.646 78.352C424.414 78.352 425.353 78.736 426.462 79.504C427.571 80.1867 428.126 80.9973 428.126 81.936C428.126 82.2773 428.041 82.4907 427.87 82.576C425.31 84.7093 422.793 87.2267 420.318 90.128C417.929 93.0293 415.667 96.016 413.534 99.088C411.401 102.16 409.438 105.019 407.646 107.664C409.694 105.36 411.998 103.099 414.558 100.88C417.118 98.576 419.593 96.4427 421.982 94.48L431.07 87.056C431.667 86.544 432.265 85.9893 432.862 85.392C433.545 84.7947 434.185 84.2827 434.782 83.856C435.465 83.4293 436.19 83.2587 436.958 83.344C437.811 83.344 438.665 83.344 439.518 83.344C440.457 83.344 441.353 83.6 442.206 84.112C443.145 84.624 443.614 85.4347 443.614 86.544C443.614 87.6533 443.315 88.5067 442.718 89.104C442.206 89.616 441.609 90.2133 440.926 90.896C439.475 92.2613 437.683 94.0533 435.55 96.272C433.502 98.4907 431.454 100.88 429.406 103.44C427.358 106 425.651 108.603 424.286 111.248C422.921 113.808 422.238 116.197 422.238 118.416C422.238 118.672 422.238 118.928 422.238 119.184C422.238 119.44 422.281 119.696 422.366 119.952C424.158 119.269 426.121 118.16 428.254 116.624C430.473 115.003 432.691 113.211 434.91 111.248C437.129 109.285 439.177 107.323 441.054 105.36C443.017 103.397 444.638 101.648 445.918 100.112C446.089 99.9413 446.259 99.728 446.43 99.472C446.686 99.216 446.985 99.088 447.326 99.088C447.753 99.088 447.966 99.3867 447.966 99.984C447.966 100.325 447.838 100.709 447.582 101.136C445.961 103.269 443.785 105.787 441.054 108.688C438.323 111.589 435.507 114.363 432.606 117.008C429.705 119.568 427.102 121.531 424.798 122.896C424.201 123.237 423.518 123.408 422.75 123.408ZM449.172 123.792C446.356 123.792 444.095 122.853 442.388 120.976C440.767 119.099 439.956 116.709 439.956 113.808C439.956 111.077 440.809 108.091 442.516 104.848C444.308 101.605 446.569 98.448 449.3 95.376C452.116 92.304 455.017 89.616 458.004 87.312C460.991 85.008 463.679 83.4293 466.068 82.576C467.177 82.1493 468.201 81.936 469.14 81.936C470.249 81.936 470.975 82.192 471.316 82.704C471.657 83.216 471.913 83.7707 472.084 84.368C472.34 84.9653 472.724 85.4347 473.236 85.776C474.175 86.288 474.644 87.184 474.644 88.464C474.644 89.4027 474.388 90.5547 473.876 91.92C473.449 93.2 472.809 94.352 471.956 95.376C471.103 96.3147 470.079 96.784 468.884 96.784C467.775 96.784 467.22 96.3147 467.22 95.376C467.22 94.7787 467.519 94.1387 468.116 93.456C468.713 92.7733 469.311 92.048 469.908 91.28C470.505 90.4267 470.804 89.616 470.804 88.848C470.804 88.08 470.42 87.696 469.652 87.696C468.201 87.696 466.409 88.464 464.276 90C462.143 91.4507 459.967 93.3707 457.748 95.76C455.529 98.1493 453.439 100.709 451.476 103.44C449.513 106.085 447.935 108.603 446.74 110.992C445.545 113.381 444.948 115.344 444.948 116.88C444.948 117.989 445.204 118.928 445.716 119.696C446.313 120.379 447.167 120.72 448.276 120.72C450.068 120.72 452.073 120.208 454.292 119.184C456.511 118.16 458.601 116.923 460.564 115.472C462.612 114.021 464.276 112.741 465.556 111.632C467.945 109.499 470.249 107.365 472.468 105.232C474.772 103.013 477.033 100.795 479.252 98.576C479.508 98.32 479.807 98.192 480.148 98.192C480.916 98.192 481.3 98.5333 481.3 99.216C481.3 99.5573 480.617 100.496 479.252 102.032C477.887 103.483 476.265 105.147 474.388 107.024C472.511 108.901 470.761 110.608 469.14 112.144C467.519 113.68 466.452 114.661 465.94 115.088C464.575 116.283 462.911 117.563 460.948 118.928C459.071 120.293 457.108 121.445 455.06 122.384C453.012 123.323 451.049 123.792 449.172 123.792Z" fill="#12181E"/>
<!-- </g> -->
<!-- <g filter="url(#filter2_d_26_18)"> -->
<circle cx="53" cy="84" r="50" fill="url(#paint0_linear_26_18)"/>
<circle cx="53" cy="84" r="49" stroke="white" stroke-width="2"/>
<!-- </g> -->
<circle cx="53" cy="56" r="10" fill="black" stroke="white" stroke-width="2"/>
<circle cx="53" cy="84" r="4" fill="black" stroke="white" stroke-width="2"/>
<circle cx="77.25" cy="98" r="10" fill="black" stroke="white" stroke-width="2"/>
<circle cx="28.75" cy="98" r="10" fill="black" stroke="white" stroke-width="2"/>
<circle cx="28.75" cy="70" r="10" fill="black" stroke="white" stroke-width="2"/>
<circle cx="53" cy="112" r="10" fill="black" stroke="white" stroke-width="2"/>
<circle cx="77.25" cy="70" r="10" fill="black" stroke="white" stroke-width="2"/>
<defs>
<filter id="filter0_d_26_18" x="78.1515" y="100" width="53.8485" height="33.8151" filterUnits="userSpaceOnUse" color-interpolation-filters="sRGB">
<feFlood flood-opacity="0" result="BackgroundImageFix"/>
<feColorMatrix in="SourceAlpha" type="matrix" values="0 0 0 0 0 0 0 0 0 0 0 0 0 0 0 0 0 0 127 0" result="hardAlpha"/>
<feOffset dx="1" dy="3"/>
<feGaussianBlur stdDeviation="2"/>
<feComposite in2="hardAlpha" operator="out"/>
<feColorMatrix type="matrix" values="0 0 0 0 0.0901961 0 0 0 0 0.121569 0 0 0 0 0.14902 0 0 0 1 0"/>
<feBlend mode="normal" in2="BackgroundImageFix" result="effect1_dropShadow_26_18"/>
<feBlend mode="normal" in="SourceGraphic" in2="effect1_dropShadow_26_18" result="shape"/>
</filter>
<filter id="filter1_d_26_18" x="119.248" y="44.328" width="367.052" height="133.696" filterUnits="userSpaceOnUse" color-interpolation-filters="sRGB">
<feFlood flood-opacity="0" result="BackgroundImageFix"/>
<feColorMatrix in="SourceAlpha" type="matrix" values="0 0 0 0 0 0 0 0 0 0 0 0 0 0 0 0 0 0 127 0" result="hardAlpha"/>
<feOffset dx="1" dy="3"/>
<feGaussianBlur stdDeviation="2"/>
<feComposite in2="hardAlpha" operator="out"/>
<feColorMatrix type="matrix" values="0 0 0 0 0.0901961 0 0 0 0 0.121569 0 0 0 0 0.14902 0 0 0 1 0"/>
<feBlend mode="normal" in2="BackgroundImageFix" result="effect1_dropShadow_26_18"/>
<feBlend mode="normal" in="SourceGraphic" in2="effect1_dropShadow_26_18" result="shape"/>
</filter>
<filter id="filter2_d_26_18" x="0" y="33" width="108" height="108" filterUnits="userSpaceOnUse" color-interpolation-filters="sRGB">
<feFlood flood-opacity="0" result="BackgroundImageFix"/>
<feColorMatrix in="SourceAlpha" type="matrix" values="0 0 0 0 0 0 0 0 0 0 0 0 0 0 0 0 0 0 127 0" result="hardAlpha"/>
<feOffset dx="1" dy="3"/>
<feGaussianBlur stdDeviation="2"/>
<feComposite in2="hardAlpha" operator="out"/>
<feColorMatrix type="matrix" values="0 0 0 0 0.0901961 0 0 0 0 0.121569 0 0 0 0 0.14902 0 0 0 1 0"/>
<feBlend mode="normal" in2="BackgroundImageFix" result="effect1_dropShadow_26_18"/>
<feBlend mode="normal" in="SourceGraphic" in2="effect1_dropShadow_26_18" result="shape"/>
</filter>
<linearGradient id="paint0_linear_26_18" x1="17" y1="50" x2="93" y2="112.5" gradientUnits="userSpaceOnUse">
<stop stop-color="#444455"/>
<stop offset="0.494792" stop-color="#001122"/>
<stop offset="1" stop-color="#001122"/>
</linearGradient>
</defs>
</svg>
