<svg width="496" height="180" viewBox="0 0 496 180" fill="none" xmlns="http://www.w3.org/2000/svg">
<g filter="url(#filter0_d_1_17)">
<path d="M88.6271 122.825C91.8148 121.024 94.9071 120.202 97.9251 120.281C100.943 120.36 103.988 121.343 107.077 123.308C110.548 125.516 114.115 126.707 117.761 126.802C121.408 126.898 124.5 126.5 128 124C131 121.5 133 114 133 110.5L129 101C127.5 107.5 130 119 126.5 121.5C123.5 123.643 120.858 123.882 117.84 123.803C114.822 123.724 111.777 122.742 108.688 120.777C105.217 118.569 101.65 117.377 98.0036 117.282C94.3573 117.186 90.7329 118.189 87.1515 120.213L88.6271 122.825Z" fill="white"/>
</g>
<g filter="url(#filter1_d_1_17)">
<path d="M152.696 124.816C148.6 124.816 144.803 124.133 141.304 122.768C137.805 121.488 134.947 119.44 132.728 116.624C130.509 113.808 129.187 110.181 128.76 105.744C128.419 101.904 129.016 97.7653 130.552 93.328C132.173 88.8053 134.477 84.2827 137.464 79.76C140.536 75.2373 144.035 70.928 147.96 66.832C151.885 62.736 156.024 59.0667 160.376 55.824C164.813 52.5813 169.208 50.0213 173.56 48.144C177.912 46.2667 182.008 45.328 185.848 45.328C188.92 45.328 191.651 46.3093 194.04 48.272C196.429 50.2347 197.624 52.88 197.624 56.208C197.624 58.8533 196.771 61.072 195.064 62.864C193.357 64.5707 191.181 65.424 188.536 65.424C188.451 65.424 188.024 65.3813 187.256 65.296C186.488 65.2107 186.061 64.912 185.976 64.4C186.403 63.376 187.171 62.48 188.28 61.712C189.475 60.944 190.541 59.92 191.48 58.64C192.419 57.2747 192.76 55.2693 192.504 52.624C192.419 51.088 191.779 50.0213 190.584 49.424C189.475 48.7413 188.195 48.4 186.744 48.4C183.16 48.4 179.363 49.424 175.352 51.472C171.341 53.4347 167.373 56.1653 163.448 59.664C159.608 63.0773 155.939 66.9173 152.44 71.184C149.027 75.4507 145.997 79.888 143.352 84.496C140.792 89.104 138.829 93.6267 137.464 98.064C136.099 102.416 135.587 106.341 135.928 109.84C136.355 113.68 138.061 116.539 141.048 118.416C144.12 120.293 147.405 121.232 150.904 121.232C154.915 121.232 159.096 120.592 163.448 119.312C167.8 117.947 172.067 116.24 176.248 114.192C180.515 112.144 184.483 110.011 188.152 107.792C191.821 105.573 194.979 103.525 197.624 101.648C200.355 99.7707 202.317 98.3627 203.512 97.424C203.597 97.3387 203.683 97.296 203.768 97.296C203.939 97.296 204.024 97.5093 204.024 97.936C204.024 98.2773 203.939 98.6613 203.768 99.088C203.683 99.5147 203.427 99.9413 203 100.368C200.269 103.184 196.899 106.043 192.888 108.944C188.963 111.76 184.696 114.363 180.088 116.752C175.48 119.141 170.787 121.061 166.008 122.512C161.315 124.048 156.877 124.816 152.696 124.816ZM228.435 73.744C226.472 73.744 225.491 73.0187 225.491 71.568C225.491 70.544 226.046 69.4347 227.155 68.24C228.264 67.0453 229.886 66.192 232.019 65.68C233.299 65.3387 234.323 65.168 235.091 65.168C235.944 65.0827 236.755 64.912 237.523 64.656C237.182 66.2773 236.456 68.0267 235.347 69.904C234.323 71.7813 232.958 72.9333 231.251 73.36C230.398 73.616 229.459 73.744 228.435 73.744ZM207.955 124.688C206.59 124.688 205.31 124.133 204.115 123.024C203.006 121.915 202.323 120.72 202.067 119.44C202.323 117.819 202.878 115.856 203.731 113.552C204.67 111.163 205.736 108.688 206.931 106.128C208.126 103.568 209.32 101.179 210.515 98.96C211.71 96.656 212.734 94.8213 213.587 93.456C211.966 94.9067 210.216 96.528 208.339 98.32C206.547 100.112 204.84 101.776 203.219 103.312C203.134 103.397 202.92 103.568 202.579 103.824C202.323 104.08 202.067 104.208 201.811 104.208C201.214 104.208 200.915 103.952 200.915 103.44C200.915 103.013 201.086 102.629 201.427 102.288C203.731 99.728 206.12 97.168 208.595 94.608C211.155 92.048 213.63 89.4027 216.019 86.672C216.787 85.7333 217.427 85.008 217.939 84.496C218.536 83.8987 219.432 83.6 220.627 83.6C221.139 83.6 221.907 83.728 222.931 83.984C224.04 84.1547 224.936 84.496 225.619 85.008C226.387 85.52 226.515 86.16 226.003 86.928C225.406 87.8667 224.382 89.4027 222.931 91.536C221.48 93.6693 219.816 96.1013 217.939 98.832C216.147 101.563 214.355 104.336 212.563 107.152C210.856 109.883 209.448 112.357 208.339 114.576C207.23 116.795 206.675 118.459 206.675 119.568C206.675 120.08 206.846 120.336 207.187 120.336C207.699 120.336 208.552 119.867 209.747 118.928C211.027 117.989 212.264 117.008 213.459 115.984C214.739 114.875 215.592 114.149 216.019 113.808C218.494 111.675 220.926 109.499 223.315 107.28C225.704 104.976 227.966 102.587 230.099 100.112C230.27 99.9413 230.483 99.6853 230.739 99.344C231.08 99.0027 231.422 98.832 231.763 98.832C232.19 98.832 232.403 99.088 232.403 99.6C232.403 100.197 232.19 100.795 231.763 101.392C230.654 102.757 229.416 104.123 228.051 105.488C226.686 106.768 225.406 108.048 224.211 109.328C221.992 111.547 219.816 113.765 217.683 115.984C215.635 118.117 213.587 120.336 211.539 122.64C211.112 123.152 210.558 123.621 209.875 124.048C209.278 124.475 208.638 124.688 207.955 124.688ZM252.625 123.408C251.345 123.408 249.894 123.024 248.273 122.256C246.737 121.573 245.969 120.464 245.969 118.928C245.969 117.136 246.652 115.003 248.017 112.528C249.382 110.053 251.004 107.493 252.881 104.848C254.758 102.117 256.55 99.5147 258.257 97.04C260.049 94.5653 261.329 92.4747 262.097 90.768C261.585 91.024 260.732 91.536 259.537 92.304C258.428 92.9867 257.318 93.712 256.209 94.48C255.1 95.1627 254.289 95.7173 253.777 96.144C250.108 98.8747 246.908 101.691 244.177 104.592C241.532 107.493 238.844 110.821 236.113 114.576C235.43 115.6 234.705 116.667 233.937 117.776C233.254 118.885 232.529 119.952 231.761 120.976C231.42 121.403 230.822 121.829 229.969 122.256C229.201 122.683 228.476 122.896 227.793 122.896C226.684 122.896 226.129 122.299 226.129 121.104C226.129 120.08 226.641 118.501 227.665 116.368C228.774 114.235 230.14 111.803 231.761 109.072C233.382 106.341 235.089 103.653 236.881 101.008C238.673 98.2773 240.294 95.8453 241.745 93.712C243.196 91.4933 244.22 89.9147 244.817 88.976C244.646 89.232 244.177 89.7013 243.409 90.384C242.641 90.9813 241.873 91.6213 241.105 92.304C240.422 92.9013 239.91 93.328 239.569 93.584C237.948 95.12 236.369 96.6987 234.833 98.32C233.297 99.9413 231.761 101.563 230.225 103.184C230.054 103.355 229.713 103.611 229.201 103.952C228.774 104.293 228.39 104.464 228.049 104.464C227.622 104.464 227.409 104.251 227.409 103.824C227.409 103.397 228.006 102.501 229.201 101.136C230.396 99.7707 231.889 98.1493 233.681 96.272C235.473 94.3947 237.308 92.4747 239.185 90.512C241.148 88.5493 242.854 86.8 244.305 85.264C245.756 83.728 246.737 82.6613 247.249 82.064C248.102 80.9547 248.998 80.0587 249.937 79.376C250.961 78.6933 252.156 78.352 253.521 78.352C254.289 78.352 255.228 78.736 256.337 79.504C257.446 80.1867 258.001 80.9973 258.001 81.936C258.001 82.2773 257.916 82.4907 257.745 82.576C255.185 84.7093 252.668 87.2267 250.193 90.128C247.804 93.0293 245.542 96.016 243.409 99.088C241.276 102.16 239.313 105.019 237.521 107.664C239.569 105.36 241.873 103.099 244.433 100.88C246.993 98.576 249.468 96.4427 251.857 94.48L260.945 87.056C261.542 86.544 262.14 85.9893 262.737 85.392C263.42 84.7947 264.06 84.2827 264.657 83.856C265.34 83.4293 266.065 83.2587 266.833 83.344C267.686 83.344 268.54 83.344 269.393 83.344C270.332 83.344 271.228 83.6 272.081 84.112C273.02 84.624 273.489 85.4347 273.489 86.544C273.489 87.6533 273.19 88.5067 272.593 89.104C272.081 89.616 271.484 90.2133 270.801 90.896C269.35 92.2613 267.558 94.0533 265.425 96.272C263.377 98.4907 261.329 100.88 259.281 103.44C257.233 106 255.526 108.603 254.161 111.248C252.796 113.808 252.113 116.197 252.113 118.416C252.113 118.672 252.113 118.928 252.113 119.184C252.113 119.44 252.156 119.696 252.241 119.952C254.033 119.269 255.996 118.16 258.129 116.624C260.348 115.003 262.566 113.211 264.785 111.248C267.004 109.285 269.052 107.323 270.929 105.36C272.892 103.397 274.513 101.648 275.793 100.112C275.964 99.9413 276.134 99.728 276.305 99.472C276.561 99.216 276.86 99.088 277.201 99.088C277.628 99.088 277.841 99.3867 277.841 99.984C277.841 100.325 277.713 100.709 277.457 101.136C275.836 103.269 273.66 105.787 270.929 108.688C268.198 111.589 265.382 114.363 262.481 117.008C259.58 119.568 256.977 121.531 254.673 122.896C254.076 123.237 253.393 123.408 252.625 123.408ZM278.919 120.848C273.799 120.848 271.239 118.331 271.239 113.296C271.239 111.333 271.751 109.072 272.775 106.512C273.884 103.867 275.335 101.221 277.127 98.576C278.919 95.9307 280.924 93.4987 283.143 91.28C285.362 88.976 287.623 87.1413 289.927 85.776C292.316 84.3253 294.535 83.6 296.583 83.6C297.266 83.6 297.735 83.7707 297.991 84.112C298.332 84.368 298.588 84.8373 298.759 85.52C298.93 85.8613 299.058 86.2453 299.143 86.672C299.228 87.0987 299.356 87.5253 299.527 87.952C299.868 88.5493 300.167 89.1467 300.423 89.744C300.679 90.3413 300.807 90.9813 300.807 91.664C300.807 92.5173 300.594 93.2853 300.167 93.968C299.74 94.5653 299.228 95.12 298.631 95.632C297.778 96.4 296.498 97.3813 294.791 98.576C293.084 99.6853 291.207 100.837 289.159 102.032C287.196 103.141 285.276 104.123 283.399 104.976C281.607 105.829 280.156 106.341 279.047 106.512C278.279 107.707 277.468 109.2 276.615 110.992C275.847 112.699 275.463 114.277 275.463 115.728C275.463 116.496 275.634 117.179 275.975 117.776C276.402 118.373 277.042 118.672 277.895 118.672C279.26 118.672 281.052 118.032 283.271 116.752C285.575 115.387 287.964 113.765 290.439 111.888C292.914 109.925 295.175 108.048 297.223 106.256C299.356 104.379 300.935 102.928 301.959 101.904L306.055 97.552C306.567 97.04 307.122 96.784 307.719 96.784C308.231 96.784 308.487 96.9973 308.487 97.424C308.487 97.936 307.762 99.0027 306.311 100.624C304.86 102.16 303.111 103.909 301.063 105.872C299.1 107.749 297.266 109.499 295.559 111.12C293.852 112.656 292.743 113.637 292.231 114.064C290.439 115.6 288.391 117.136 286.087 118.672C283.783 120.123 281.394 120.848 278.919 120.848ZM281.223 103.184C282.076 102.672 283.356 101.861 285.063 100.752C286.855 99.6427 288.69 98.4053 290.567 97.04C292.444 95.6747 294.023 94.3093 295.303 92.944C296.668 91.5787 297.351 90.384 297.351 89.36C297.351 89.104 297.308 88.8907 297.223 88.72C297.138 88.6347 296.967 88.592 296.711 88.592C295.602 88.592 294.279 89.1893 292.743 90.384C291.207 91.5787 289.671 93.0293 288.135 94.736C286.599 96.3573 285.191 97.9787 283.911 99.6C282.716 101.136 281.82 102.331 281.223 103.184ZM326.89 126.352C326.293 126.352 325.653 126.352 324.97 126.352C324.373 126.352 323.861 126.309 323.434 126.224C322.666 126.139 321.386 125.84 319.594 125.328C317.802 124.816 315.925 124.133 313.962 123.28C312.085 122.512 310.463 121.616 309.098 120.592C307.818 119.568 307.178 118.459 307.178 117.264C307.178 116.752 307.477 116.496 308.074 116.496C309.525 116.496 310.975 116.88 312.426 117.648C313.962 118.416 315.541 118.885 317.162 119.056C317.845 119.141 318.57 119.227 319.338 119.312C320.191 119.312 321.13 119.312 322.154 119.312C324.287 119.312 326.506 119.141 328.81 118.8C331.114 118.373 333.077 117.648 334.698 116.624C336.319 115.6 337.173 114.149 337.258 112.272C337.258 111.077 336.49 109.584 334.954 107.792C333.418 105.915 331.455 103.781 329.066 101.392C326.762 98.9173 324.458 96.2293 322.154 93.328C319.85 90.3413 317.887 87.1413 316.266 83.728C314.73 80.3147 313.962 76.7733 313.962 73.104C313.962 68.496 315.071 64.4853 317.29 61.072C319.509 57.6587 322.41 54.8853 325.994 52.752C329.578 50.5333 333.503 48.912 337.77 47.888C342.037 46.7787 346.218 46.224 350.314 46.224C352.362 46.224 354.282 46.352 356.074 46.608C358.378 46.864 360.853 47.4613 363.498 48.4C366.229 49.2533 368.575 50.6187 370.538 52.496C372.501 54.288 373.482 56.6773 373.482 59.664C373.482 62.8213 372.458 65.8507 370.41 68.752C368.447 71.6533 366.015 74.2133 363.114 76.432C360.298 78.5653 357.525 80.1867 354.794 81.296C354.282 81.552 353.77 81.68 353.258 81.68C352.831 81.5093 352.618 81.296 352.618 81.04C353.045 80.1013 354.069 78.8213 355.69 77.2C357.397 75.4933 359.231 73.616 361.194 71.568C363.242 69.52 364.991 67.344 366.442 65.04C367.978 62.6507 368.746 60.304 368.746 58C368.746 56.464 368.191 55.312 367.082 54.544C365.973 53.6907 364.65 53.0507 363.114 52.624C361.663 52.1973 360.383 51.8987 359.274 51.728C358.762 51.6427 358.25 51.6 357.738 51.6C357.226 51.6 356.671 51.6 356.074 51.6C352.234 51.6 348.095 52.2827 343.658 53.648C339.306 54.928 335.167 56.7627 331.242 59.152C327.317 61.5413 324.117 64.4 321.642 67.728C319.167 70.9707 317.93 74.5973 317.93 78.608C317.93 80.9973 318.783 83.5573 320.49 86.288C322.197 88.9333 324.33 91.664 326.89 94.48C329.45 97.296 332.01 100.112 334.57 102.928C337.13 105.659 339.263 108.347 340.97 110.992C342.677 113.552 343.53 115.941 343.53 118.16C343.53 120.293 342.591 121.957 340.714 123.152C338.922 124.347 336.703 125.157 334.058 125.584C331.498 126.096 329.109 126.352 326.89 126.352ZM338.825 171.024C334.9 171.024 332.937 169.061 332.937 165.136C332.937 164.709 332.98 164.283 333.065 163.856C333.065 163.429 333.108 163.003 333.193 162.576C333.876 159.504 335.326 156.56 337.545 153.744C339.764 150.928 342.366 148.283 345.353 145.808C348.34 143.419 351.369 141.157 354.441 139.024C357.598 136.976 360.414 135.184 362.889 133.648C364.34 132.709 366.174 131.557 368.393 130.192C370.697 128.827 373.129 127.333 375.689 125.712C378.249 124.176 380.681 122.725 382.985 121.36C383.924 118.971 384.564 116.325 384.905 113.424C385.332 110.437 385.545 107.664 385.545 105.104V104.08C384.521 105.616 383.028 107.408 381.065 109.456C379.102 111.504 376.884 113.509 374.409 115.472C371.934 117.349 369.502 118.928 367.113 120.208C364.724 121.488 362.548 122.128 360.585 122.128C359.22 122.128 358.281 121.701 357.769 120.848C357.342 119.995 357.129 119.013 357.129 117.904C357.129 114.917 357.769 111.845 359.049 108.688C360.329 105.531 361.78 102.629 363.401 99.984C365.022 97.2533 366.473 94.992 367.753 93.2C369.033 91.3227 369.673 90.256 369.673 90C369.673 89.9147 369.588 89.872 369.417 89.872C369.076 89.872 368.692 89.872 368.265 89.872C367.924 89.872 367.881 89.616 368.137 89.104C369.332 87.6533 370.825 86.3733 372.617 85.264C374.409 84.1547 376.116 83.6 377.737 83.6C378.334 83.6 379.017 83.856 379.785 84.368C380.638 84.7947 381.065 85.3493 381.065 86.032C381.065 86.4587 380.809 86.928 380.297 87.44C379.7 88.0373 378.974 88.72 378.121 89.488C377.353 90.256 376.286 91.4507 374.921 93.072C374.153 93.9253 373.086 95.3333 371.721 97.296C370.356 99.1733 368.948 101.349 367.497 103.824C366.046 106.213 364.809 108.603 363.785 110.992C362.846 113.296 362.377 115.301 362.377 117.008C362.377 117.264 362.377 117.563 362.377 117.904C362.462 118.16 362.676 118.416 363.017 118.672C364.212 118.757 365.705 118.245 367.497 117.136C369.289 115.941 371.166 114.448 373.129 112.656C375.177 110.779 377.097 108.816 378.889 106.768C380.766 104.635 382.388 102.672 383.753 100.88C385.204 99.0027 386.228 97.5093 386.825 96.4C387.764 94.6933 389.172 93.84 391.049 93.84C392.414 93.84 393.182 94.1387 393.353 94.736C393.609 95.3333 393.737 96.144 393.737 97.168C393.737 100.496 393.524 103.44 393.097 106C392.756 108.475 392.073 111.291 391.049 114.448C396.51 109.755 401.716 104.805 406.665 99.6C406.75 99.4293 406.921 99.216 407.177 98.96C407.518 98.704 407.774 98.576 407.945 98.576C408.457 98.576 408.713 98.832 408.713 99.344C408.713 100.027 408.457 100.709 407.945 101.392C407.177 102.331 406.324 103.269 405.385 104.208C404.532 105.147 403.678 106.085 402.825 107.024C400.777 109.243 398.686 111.461 396.553 113.68C394.42 115.813 392.158 117.861 389.769 119.824C385.844 130.149 380.681 139.195 374.281 146.96C367.966 154.811 359.988 161.509 350.345 167.056C348.724 167.995 346.889 168.891 344.841 169.744C342.793 170.597 340.788 171.024 338.825 171.024ZM341.769 167.824C344.073 167.824 346.59 166.971 349.321 165.264C351.966 163.643 354.612 161.595 357.257 159.12C359.902 156.645 362.292 154.171 364.425 151.696C366.644 149.307 368.393 147.301 369.673 145.68C371.124 143.717 372.532 141.755 373.897 139.792C375.262 137.915 376.542 135.952 377.737 133.904C379.529 130.917 381.022 128.016 382.217 125.2C382.302 124.944 382.217 124.773 381.961 124.688C381.79 124.688 381.705 124.688 381.705 124.688C379.06 126.565 376.372 128.4 373.641 130.192C370.996 132.069 368.308 133.904 365.577 135.696C364.212 136.549 362.377 137.787 360.073 139.408C357.769 141.115 355.294 142.992 352.649 145.04C350.004 147.173 347.486 149.349 345.097 151.568C342.708 153.872 340.745 156.091 339.209 158.224C337.673 160.443 336.905 162.405 336.905 164.112C336.905 165.477 337.46 166.416 338.569 166.928C339.593 167.525 340.66 167.824 341.769 167.824ZM428.75 123.408C427.47 123.408 426.019 123.024 424.398 122.256C422.862 121.573 422.094 120.464 422.094 118.928C422.094 117.136 422.777 115.003 424.142 112.528C425.507 110.053 427.129 107.493 429.006 104.848C430.883 102.117 432.675 99.5147 434.382 97.04C436.174 94.5653 437.454 92.4747 438.222 90.768C437.71 91.024 436.857 91.536 435.662 92.304C434.553 92.9867 433.443 93.712 432.334 94.48C431.225 95.1627 430.414 95.7173 429.902 96.144C426.233 98.8747 423.033 101.691 420.302 104.592C417.657 107.493 414.969 110.821 412.238 114.576C411.555 115.6 410.83 116.667 410.062 117.776C409.379 118.885 408.654 119.952 407.886 120.976C407.545 121.403 406.947 121.829 406.094 122.256C405.326 122.683 404.601 122.896 403.918 122.896C402.809 122.896 402.254 122.299 402.254 121.104C402.254 120.08 402.766 118.501 403.79 116.368C404.899 114.235 406.265 111.803 407.886 109.072C409.507 106.341 411.214 103.653 413.006 101.008C414.798 98.2773 416.419 95.8453 417.87 93.712C419.321 91.4933 420.345 89.9147 420.942 88.976C420.771 89.232 420.302 89.7013 419.534 90.384C418.766 90.9813 417.998 91.6213 417.23 92.304C416.547 92.9013 416.035 93.328 415.694 93.584C414.073 95.12 412.494 96.6987 410.958 98.32C409.422 99.9413 407.886 101.563 406.35 103.184C406.179 103.355 405.838 103.611 405.326 103.952C404.899 104.293 404.515 104.464 404.174 104.464C403.747 104.464 403.534 104.251 403.534 103.824C403.534 103.397 404.131 102.501 405.326 101.136C406.521 99.7707 408.014 98.1493 409.806 96.272C411.598 94.3947 413.433 92.4747 415.31 90.512C417.273 88.5493 418.979 86.8 420.43 85.264C421.881 83.728 422.862 82.6613 423.374 82.064C424.227 80.9547 425.123 80.0587 426.062 79.376C427.086 78.6933 428.281 78.352 429.646 78.352C430.414 78.352 431.353 78.736 432.462 79.504C433.571 80.1867 434.126 80.9973 434.126 81.936C434.126 82.2773 434.041 82.4907 433.87 82.576C431.31 84.7093 428.793 87.2267 426.318 90.128C423.929 93.0293 421.667 96.016 419.534 99.088C417.401 102.16 415.438 105.019 413.646 107.664C415.694 105.36 417.998 103.099 420.558 100.88C423.118 98.576 425.593 96.4427 427.982 94.48L437.07 87.056C437.667 86.544 438.265 85.9893 438.862 85.392C439.545 84.7947 440.185 84.2827 440.782 83.856C441.465 83.4293 442.19 83.2587 442.958 83.344C443.811 83.344 444.665 83.344 445.518 83.344C446.457 83.344 447.353 83.6 448.206 84.112C449.145 84.624 449.614 85.4347 449.614 86.544C449.614 87.6533 449.315 88.5067 448.718 89.104C448.206 89.616 447.609 90.2133 446.926 90.896C445.475 92.2613 443.683 94.0533 441.55 96.272C439.502 98.4907 437.454 100.88 435.406 103.44C433.358 106 431.651 108.603 430.286 111.248C428.921 113.808 428.238 116.197 428.238 118.416C428.238 118.672 428.238 118.928 428.238 119.184C428.238 119.44 428.281 119.696 428.366 119.952C430.158 119.269 432.121 118.16 434.254 116.624C436.473 115.003 438.691 113.211 440.91 111.248C443.129 109.285 445.177 107.323 447.054 105.36C449.017 103.397 450.638 101.648 451.918 100.112C452.089 99.9413 452.259 99.728 452.43 99.472C452.686 99.216 452.985 99.088 453.326 99.088C453.753 99.088 453.966 99.3867 453.966 99.984C453.966 100.325 453.838 100.709 453.582 101.136C451.961 103.269 449.785 105.787 447.054 108.688C444.323 111.589 441.507 114.363 438.606 117.008C435.705 119.568 433.102 121.531 430.798 122.896C430.201 123.237 429.518 123.408 428.75 123.408ZM455.172 123.792C452.356 123.792 450.095 122.853 448.388 120.976C446.767 119.099 445.956 116.709 445.956 113.808C445.956 111.077 446.809 108.091 448.516 104.848C450.308 101.605 452.569 98.448 455.3 95.376C458.116 92.304 461.017 89.616 464.004 87.312C466.991 85.008 469.679 83.4293 472.068 82.576C473.177 82.1493 474.201 81.936 475.14 81.936C476.249 81.936 476.975 82.192 477.316 82.704C477.657 83.216 477.913 83.7707 478.084 84.368C478.34 84.9653 478.724 85.4347 479.236 85.776C480.175 86.288 480.644 87.184 480.644 88.464C480.644 89.4027 480.388 90.5547 479.876 91.92C479.449 93.2 478.809 94.352 477.956 95.376C477.103 96.3147 476.079 96.784 474.884 96.784C473.775 96.784 473.22 96.3147 473.22 95.376C473.22 94.7787 473.519 94.1387 474.116 93.456C474.713 92.7733 475.311 92.048 475.908 91.28C476.505 90.4267 476.804 89.616 476.804 88.848C476.804 88.08 476.42 87.696 475.652 87.696C474.201 87.696 472.409 88.464 470.276 90C468.143 91.4507 465.967 93.3707 463.748 95.76C461.529 98.1493 459.439 100.709 457.476 103.44C455.513 106.085 453.935 108.603 452.74 110.992C451.545 113.381 450.948 115.344 450.948 116.88C450.948 117.989 451.204 118.928 451.716 119.696C452.313 120.379 453.167 120.72 454.276 120.72C456.068 120.72 458.073 120.208 460.292 119.184C462.511 118.16 464.601 116.923 466.564 115.472C468.612 114.021 470.276 112.741 471.556 111.632C473.945 109.499 476.249 107.365 478.468 105.232C480.772 103.013 483.033 100.795 485.252 98.576C485.508 98.32 485.807 98.192 486.148 98.192C486.916 98.192 487.3 98.5333 487.3 99.216C487.3 99.5573 486.617 100.496 485.252 102.032C483.887 103.483 482.265 105.147 480.388 107.024C478.511 108.901 476.761 110.608 475.14 112.144C473.519 113.68 472.452 114.661 471.94 115.088C470.575 116.283 468.911 117.563 466.948 118.928C465.071 120.293 463.108 121.445 461.06 122.384C459.012 123.323 457.049 123.792 455.172 123.792Z" fill="white"/>
</g>
<g filter="url(#filter2_d_1_17)">
<circle cx="59" cy="84" r="50" fill="url(#paint0_linear_1_17)"/>
<circle cx="59" cy="84" r="49" stroke="white" stroke-width="2"/>
</g>
<circle cx="59" cy="56" r="10" fill="black" stroke="white" stroke-width="2"/>
<circle cx="59" cy="84" r="4" fill="black" stroke="white" stroke-width="2"/>
<circle cx="83.25" cy="98" r="10" fill="black" stroke="white" stroke-width="2"/>
<circle cx="34.75" cy="98" r="10" fill="black" stroke="white" stroke-width="2"/>
<circle cx="34.75" cy="70" r="10" fill="black" stroke="white" stroke-width="2"/>
<circle cx="59" cy="112" r="10" fill="black" stroke="white" stroke-width="2"/>
<circle cx="83.25" cy="70" r="10" fill="black" stroke="white" stroke-width="2"/>
<defs>
<filter id="filter0_d_1_17" x="79.1515" y="93" width="61.8485" height="41.8151" filterUnits="userSpaceOnUse" color-interpolation-filters="sRGB">
<feFlood flood-opacity="0" result="BackgroundImageFix"/>
<feColorMatrix in="SourceAlpha" type="matrix" values="0 0 0 0 0 0 0 0 0 0 0 0 0 0 0 0 0 0 127 0" result="hardAlpha"/>
<feOffset/>
<feGaussianBlur stdDeviation="4"/>
<feComposite in2="hardAlpha" operator="out"/>
<feColorMatrix type="matrix" values="0 0 0 0 0.4 0 0 0 0 0.4 0 0 0 0 0.4 0 0 0 1 0"/>
<feBlend mode="normal" in2="BackgroundImageFix" result="effect1_dropShadow_1_17"/>
<feBlend mode="normal" in="SourceGraphic" in2="effect1_dropShadow_1_17" result="shape"/>
</filter>
<filter id="filter1_d_1_17" x="120.248" y="37.328" width="375.052" height="141.696" filterUnits="userSpaceOnUse" color-interpolation-filters="sRGB">
<feFlood flood-opacity="0" result="BackgroundImageFix"/>
<feColorMatrix in="SourceAlpha" type="matrix" values="0 0 0 0 0 0 0 0 0 0 0 0 0 0 0 0 0 0 127 0" result="hardAlpha"/>
<feOffset/>
<feGaussianBlur stdDeviation="4"/>
<feComposite in2="hardAlpha" operator="out"/>
<feColorMatrix type="matrix" values="0 0 0 0 1 0 0 0 0 1 0 0 0 0 1 0 0 0 0.25 0"/>
<feBlend mode="normal" in2="BackgroundImageFix" result="effect1_dropShadow_1_17"/>
<feBlend mode="normal" in="SourceGraphic" in2="effect1_dropShadow_1_17" result="shape"/>
</filter>
<filter id="filter2_d_1_17" x="0" y="25" width="118" height="118" filterUnits="userSpaceOnUse" color-interpolation-filters="sRGB">
<feFlood flood-opacity="0" result="BackgroundImageFix"/>
<feColorMatrix in="SourceAlpha" type="matrix" values="0 0 0 0 0 0 0 0 0 0 0 0 0 0 0 0 0 0 127 0" result="hardAlpha"/>
<feMorphology radius="1" operator="dilate" in="SourceAlpha" result="effect1_dropShadow_1_17"/>
<feOffset/>
<feGaussianBlur stdDeviation="4"/>
<feComposite in2="hardAlpha" operator="out"/>
<feColorMatrix type="matrix" values="0 0 0 0 1 0 0 0 0 1 0 0 0 0 1 0 0 0 0.25 0"/>
<feBlend mode="normal" in2="BackgroundImageFix" result="effect1_dropShadow_1_17"/>
<feBlend mode="normal" in="SourceGraphic" in2="effect1_dropShadow_1_17" result="shape"/>
</filter>
<linearGradient id="paint0_linear_1_17" x1="23" y1="50" x2="99" y2="112.5" gradientUnits="userSpaceOnUse">
<stop stop-color="#444455"/>
<stop offset="0.494792" stop-color="#001122"/>
<stop offset="1" stop-color="#001122"/>
</linearGradient>
</defs>
</svg>
